# xmcd
#
# Track frame offsets:
#	150
#	18749
#	32968
#	55678
#	67969
#	86946
#	108046
#	126017
#	142007
#	156550
#	170742
#	194056
#
# Disc length: 2824 seconds
#
# Revision: 0
# Processed by: cddbd v1.5.2PL0 Copyright (c) Steve Scherf et al.
# Submitted via: audiograbber 1.83.01
#
DISCID=b20b060c
DTITLE=Karen Froude - Grace For The Journey
DYEAR=2006
DGENRE=Gospel
TTITLE0=I Started Over At Calvary
TTITLE1=Feels Good To Be Free
TTITLE2=The Promise
TTITLE3=It's A Different Story
TTITLE4=In Awe Of You
TTITLE5=Born In Zion
TTITLE6=Even Greater
TTITLE7=Faith Enough
TTITLE8=My Good Your Glory
TTITLE9=Rest Assured
TTITLE10=Jerusalem
TTITLE11=I Will Not Forget You
EXTD=
EXTT0=
EXTT1=
EXTT2=
EXTT3=
EXTT4=
EXTT5=
EXTT6=
EXTT7=
EXTT8=
EXTT9=
EXTT10=
EXTT11=
PLAYORDER=
